<mxfile host="app.diagrams.net" modified="2023-12-20T08:59:09.789Z" agent="Mozilla/5.0 (Windows NT 10.0; Win64; x64) AppleWebKit/537.36 (KHTML, like Gecko) Chrome/120.0.0.0 Safari/537.36" version="22.1.11" etag="P08IfGh8TMUg66Ube1F3" type="github">
  <diagram name="Page-1" id="h5_3ogl124ToeDPJuWmL">
    <mxGraphModel>
      <root>
        <mxCell id="0" />
        <mxCell id="1" parent="0" />
      </root>
    </mxGraphModel>
  </diagram>
</mxfile>
